<?xml version="1.0" encoding="UTF-8"?>
<svg width="37px" height="28px" viewBox="0 0 37 28" version="1.1" xmlns="http://www.w3.org/2000/svg" xmlns:xlink="http://www.w3.org/1999/xlink">
    <title>Navigation / Icons / Category Nav Icon - Other Games - Default@1x</title>
    <g id="Navigation-/-Icons-/-Category-Nav-Icon---Other-Games---Default" stroke="none" stroke-width="1" fill="none" fill-rule="evenodd">
        <path d="M24.1736249,19.1936798 C24.3758438,20.7451983 24.2046385,22.53554 23.6225159,23.8998323 C22.9762573,25.2459049 22.1160561,26.2358722 20.5733944,27 L18.4461803,21.9242246 C19.7756997,21.4165065 20.7552585,21.0088567 21.384857,20.7012754 C22.0144554,20.393694 22.9411055,19.9217156 24.1736249,19.1936798 Z M11.4321439,21.1893346 C11.9113556,21.6365883 12.3610418,21.534165 12.3610418,22.0697592 C12.3610418,22.4630972 11.8300287,23.8899692 11.0413182,24.3644391 C9.40019022,25.0965363 7.78555816,25.7944836 6.10467561,26.4279798 C6.49679334,25.5744083 6.83560486,24.8346879 7.12207687,24.2056851 L7.32713233,23.7546436 C7.75022167,22.8221538 8.03574018,22.1799589 8.18783596,21.8146128 C8.40080633,21.1837712 9.41380373,20.5253637 10.4770146,20.2914621 C10.7921112,20.2127047 10.9529321,20.742081 11.4321439,21.1893346 Z M31.8683175,1.20619081 C31.9583837,1.96995566 32.7681169,7.74810549 28.9305857,13.0382667 C26.4329421,16.4034598 22.6565669,18.969675 17.6014603,20.7369124 L12.1330019,15.2788768 C13.8227957,10.5104969 16.1935815,6.91839591 19.2453595,4.50257381 C22.1013065,2.28856835 26.4140682,0.351969374 31.8683175,1.20619081 Z M13.7755581,8.62312697 C13.0175569,9.82311653 12.5383203,10.7701925 12.2299846,11.3982506 C11.9216489,12.0263088 11.5119424,12.9911513 10.9940817,14.3261022 L6,12.2379065 C6.68119488,10.7799914 7.75412931,9.75828101 9.34215175,9.10564728 C10.5601527,8.59547996 12.1729483,8.4594582 13.7755581,8.62312697 Z M22.5026097,7.00705971 C20.6857927,7.00705971 19.2120893,8.47715776 19.2120893,10.2917069 C19.2120893,12.106256 20.6857927,13.5763541 22.5026097,13.5763541 C24.3194267,13.5763541 25.7931303,12.106256 25.7931303,10.2917069 C25.7931303,8.47715777 24.3194267,7.00705971 22.5026097,7.00705971 Z M22.5026097,7.89688133 C23.828479,7.89688133 24.9033086,8.96908125 24.9033086,10.2917069 C24.9033086,11.6143326 23.828479,12.6865324 22.5026097,12.6865324 C21.1767403,12.6865324 20.1019109,11.6143326 20.1019109,10.2917069 C20.1019109,8.96908125 21.1767403,7.89688133 22.5026097,7.89688133 Z" id="Others-Inactive" fill="#BBBBBB"></path>
    </g>
</svg>