<?xml version="1.0" encoding="UTF-8"?>
<svg width="37px" height="28px" viewBox="0 0 37 28" version="1.1" xmlns="http://www.w3.org/2000/svg" xmlns:xlink="http://www.w3.org/1999/xlink">
    <title>Navigation / Icons / Category Nav Icon - Live Dealer - Default@1x</title>
    <g id="Navigation-/-Icons-/-Category-Nav-Icon---Live-Dealer---Default" stroke="none" stroke-width="1" fill="none" fill-rule="evenodd">
        <path d="M9.96719227,18.7706844 L9.96719227,26 L5,26 L7.41001939,19.8262955 L9.96719227,18.7706844 Z M24.7446563,8.30064452 C24.7046684,10.8643671 24.0703169,13.4811282 23.2017712,16.1187879 L23.1801798,14.0360539 C22.6795715,15.0585758 21.8760491,15.90282 20.8880423,16.4491655 L24.2970564,17.9641335 L20.4859235,26 L16.2589286,26 L12.4496094,17.9641335 L15.720448,16.5025365 C14.7585224,15.9961838 13.9636282,15.2105776 13.4411404,14.2521529 C13.4869048,14.7841814 13.5896328,15.400971 13.7570647,16.1187879 C13.1600745,15.2919997 12.3289139,13.2660824 12.0286059,10.9768486 L11.1018524,12.0637926 L11.8598108,8.23829968 L10.766488,9.05939393 L12.6014379,5.7077414 C13.7578088,3.44434606 15.6478806,2.21002531 18.2716534,2.00477912 C20.9286464,1.91730423 24.5039405,2.9937044 24.7446563,8.30064452 Z M21.8827003,16.9090909 L19.0746582,18.3679508 C18.9447305,18.1171384 18.6830275,17.945774 18.3813502,17.945774 C18.1227696,17.945774 17.893558,18.0716744 17.7515257,18.2655919 L17.6880422,18.3679508 L14.88,16.9090909 L14.88,20.5454545 L17.6889682,19.0883764 C17.8192103,19.3382183 18.0803878,19.5087714 18.3813502,19.5087714 C18.6393179,19.5087714 18.8680559,19.3834671 19.0101635,19.190331 L19.0737322,19.0883764 L21.8827003,20.5454545 L21.8827003,16.9090909 Z M20.9139291,7.56456945 L20.7887565,7.69815751 C19.9918118,8.51642255 19.1678173,9.06094064 18.3721996,9.46433938 L14.9586564,10.8807848 C14.2889807,11.2349329 13.7901668,11.696199 13.5583447,12.4946072 C13.9608677,14.6221814 15.7458978,16.2540479 17.9331193,16.4007598 L18.5739753,16.4009262 C21.0666208,16.2350353 23.0375849,14.1403079 23.0375849,11.5806061 C23.0375849,9.90655252 22.1945634,8.43137798 20.9139291,7.56456945 Z M31,26 L28.8250217,20.0376538 L26.5172414,19.0181818 L26.5172414,26 L31,26 Z" id="Default-LiveDealer" fill="#BBBBBB"></path>
    </g>
</svg>