<?xml version="1.0" encoding="UTF-8"?>
<svg width="37px" height="28px" viewBox="0 0 37 28" version="1.1" xmlns="http://www.w3.org/2000/svg" xmlns:xlink="http://www.w3.org/1999/xlink">
    <title>Navigation / Icons / Category Nav Icon - Dual Drop Jackpots - Default</title>
    <g id="Navigation-/-Icons-/-Category-Nav-Icon---Dual-Drop-Jackpots---Default" stroke="none" stroke-width="1" fill="none" fill-rule="evenodd">
        <path d="M11.0229846,10.1711185 L17.0157667,26 L2,10.1711185 L11.0229846,10.1711185 Z M24.0806559,10.1711185 L18.502,25.986 L18.5021217,26 L18.497,25.986 L12.9193441,10.1711185 L24.0806559,10.1711185 Z M35,10.1711185 L19.9842333,26 L25.9770154,10.1711185 L35,10.1711185 Z M29.3514049,2 L35,8.39780014 L25.9584286,8.39780014 L23.2068006,2 L29.3514049,2 Z M12.9193441,8.39780014 L15.3857827,2 L21.6142173,2 L24.0806559,8.39780014 L12.9193441,8.39780014 Z M13.7931994,2 L11.0415714,8.39780014 L2,8.39780014 L7.6485951,2 L13.7931994,2 Z" id="Combined-Shape" fill="#BBBBBB"></path>
    </g>
</svg>