<?xml version="1.0" encoding="UTF-8"?>
<svg width="37px" height="28px" viewBox="0 0 37 28" version="1.1" xmlns="http://www.w3.org/2000/svg" xmlns:xlink="http://www.w3.org/1999/xlink">
    <title>Navigation / Icons / Category Nav Icon - How To Play - Default</title>
    <g id="Navigation-/-Icons-/-Category-Nav-Icon---How-To-Play---Default" stroke="none" stroke-width="1" fill="none" fill-rule="evenodd">
        <path d="M26.4768348,19.3632515 L20.5528875,19.5338622 L20.6269377,19.3739167 L26.4768348,19.3632515 Z M12.9665954,3.00719435 C12.8286785,3.29227187 12.5343521,3.73196637 12.6142209,4.37313743 C13.0910292,10.2047821 13.4263642,14.1761795 13.6202261,16.2873295 L13.6504231,16.6133721 C13.700912,17.1534256 13.7400909,17.5447629 13.7679599,17.7873839 L13.786741,17.9414654 C13.7950713,18.004564 13.801811,18.0467494 13.8069604,18.0680216 C13.8858733,18.3940165 13.9872208,18.8255047 14.3875944,19.1177651 L14.0656191,19.476587 C14.0340878,19.4563399 14.0032322,19.4348202 13.9731301,19.4120478 C13.6609598,19.1758903 13.4554006,18.8243759 13.4016939,18.434869 L11.5100995,4.727358 C11.4562803,4.33777338 11.5587879,3.94207962 11.7950516,3.62740276 C12.0313154,3.3127259 12.3819625,3.10486826 12.7697857,3.04959708 L12.9665954,3.00719435 Z M20.8073749,18.9404881 L25.0621179,19.0601737 L20.7484289,19.0676194 L20.8073749,18.9404881 Z M20.153476,1.01461854 L29.1091108,2.28759826 C29.4966159,2.34250306 29.8467924,2.55006932 30.0825556,2.86460537 C30.3183189,3.17914143 30.4203426,3.57486365 30.3661683,3.96466151 L28.4608248,17.6799275 C28.4068853,18.0699166 28.2010446,18.4220925 27.8886478,18.6588734 C27.576251,18.8956544 27.1829273,18.9976147 26.7953231,18.9422933 L21.2496508,18.1543883 C21.9662281,17.1023797 22.4136482,16.2459962 22.5919109,15.5852379 C22.8269745,14.7139385 22.5738799,13.4867069 21.7729893,12.8923435 L24.1431728,13.2299334 C23.7881182,12.8260927 23.4958198,12.0130915 23.5159577,11.2080579 C23.9223602,11.91339 24.7730554,12.2239301 25.5332219,11.9444456 C26.2933883,11.6649611 26.7434221,10.8761921 26.6003925,10.0740278 C26.4573629,9.27186346 25.7625897,8.68804057 24.9528682,8.68960127 C25.330513,8.21957762 25.4272759,7.5810548 25.2061474,7.01825335 C24.9850189,6.4554519 24.480211,6.05544624 23.8848014,5.97122949 C23.300222,5.88866906 22.7146609,6.12367023 22.347287,6.58975174 C21.9799132,7.05583326 21.8857097,7.68323908 22.0997187,8.23858353 C21.3428684,8.08857387 20.5832916,8.48001744 20.2627356,9.18526239 C19.9421795,9.89050734 20.1442272,10.7256652 20.7513738,11.2050331 C21.3585205,11.684401 22.212456,11.6829866 22.8165572,11.2016125 C22.6176753,11.9159547 22.1759387,12.5132566 21.7698587,12.8050578 L21.7074458,12.8459593 C21.6134942,12.7826204 21.5125079,12.7277241 21.4044007,12.6827031 C20.3153201,12.2291584 18.8197166,12.7781254 18.2761611,13.445591 C17.9379488,13.860903 17.4167524,14.6825019 16.7125718,15.9103877 L16.5674648,16.1645114 C16.5693412,16.1046781 16.5739384,16.0480802 16.5818144,15.9916082 L18.488701,2.27689504 C18.5426689,1.88706788 18.748414,1.53503687 19.0606453,1.29829477 C19.3728767,1.06155267 19.7659997,0.959506069 20.153476,1.01461854 Z M14.8468092,2.27981838 C14.6894806,2.55460559 14.3654343,2.97270647 14.4005917,3.61808363 C14.4782124,12.5637041 14.5510739,17.1909064 14.6191762,17.4996906 C14.673658,17.7467179 14.772759,18.0242381 14.9857788,18.2703231 L15.0304375,18.3178788 L14.719832,18.7257725 C14.417228,18.4620453 14.2366176,18.0968818 14.2100867,17.7044561 L13.2748666,3.89411527 C13.2482288,3.50160405 13.3779202,3.11395829 13.6353845,2.81653198 C13.8928489,2.51910566 14.256975,2.33628664 14.6475877,2.30832901 L14.8468092,2.27981838 Z M26.7654537,16.317695 C26.6204882,16.3502752 26.4968053,16.4445737 26.4264558,16.5761544 C26.3900188,16.6426446 26.3666454,16.715587 26.3576097,16.7910051 C26.3447904,16.8738204 26.351447,16.9585362 26.3770453,17.0383545 C26.4008691,17.105525 26.4413414,17.1654851 26.4946239,17.2125484 C26.5455907,17.2578508 26.604702,17.292914 26.6687567,17.3158392 C26.7432815,17.3414157 26.8203522,17.3587119 26.8985917,17.3674187 C26.9597549,17.3749582 27.0212295,17.379628 27.0828156,17.3814128 L27.0296126,17.8201325 L26.2562711,17.723999 L26.2327731,17.9177668 L27.2190742,18.0403733 L27.3221108,17.1907194 C27.2774372,17.1940727 27.2254068,17.1972538 27.1647431,17.1986194 C27.1033526,17.1998946 27.0410404,17.196602 26.976353,17.1885607 C26.9087583,17.1801581 26.8484144,17.166719 26.7953213,17.1482435 C26.7462984,17.1327832 26.7011287,17.1069194 26.6628647,17.0724001 C26.6311034,17.0440313 26.607263,17.0078021 26.5937145,16.9673152 C26.5686277,16.8675025 26.5798509,16.762007 26.6253543,16.669906 C26.6698844,16.5807874 26.754261,16.5186642 26.8521859,16.5028989 C26.9030254,16.4942859 26.9548573,16.4932269 27.0060256,16.4997559 C27.0868395,16.5102118 27.1654563,16.5337707 27.2388203,16.5695167 C27.3101375,16.602601 27.377177,16.6443354 27.4384443,16.6937896 L27.4537076,16.695687 L27.4820826,16.4617031 C27.3418741,16.3790297 27.1862634,16.3263326 27.0249857,16.3069052 C26.9380033,16.295231 26.8503581,16.2986681 26.7654537,16.317695 Z M16.7306601,1.59370837 C16.5546863,1.85686654 16.2024988,2.25133686 16.1927737,2.89777592 C15.6408008,12.0434967 15.395586,16.7721195 15.4571294,17.0836443 C15.485534,17.227425 15.5287223,17.3623395 15.5953271,17.4855811 L15.6317095,17.5448401 L15.3701057,17.8923116 L15.3576573,17.8796651 C15.1429614,17.6161135 15.0245414,17.2844155 15.0252188,16.9401618 L15.0509292,3.09427382 C15.0516027,2.70074827 15.207846,2.32303909 15.4852566,2.04431235 C15.7626671,1.76558562 16.1384983,1.60869589 16.5299974,1.60818801 L16.7306601,1.59370837 Z M18.3576953,1.19547705 L18.5588216,1.19509895 C18.3650598,1.445346 17.986447,1.81426394 17.9318866,2.4586155 L16.1522115,15.9352289 C16.1520408,16.0264766 16.1471008,16.1180054 16.1423833,16.2093107 L16.1347244,16.3914736 C16.1317886,16.5125175 16.1351651,16.6325659 16.1566869,16.7504229 L16.1687789,16.8068872 L15.9374741,17.1385483 L15.916574,17.0973902 C15.8189204,16.8771242 15.775423,16.6339287 15.7929701,16.3886018 L16.7794858,2.57462235 C16.8074674,2.18199969 16.9895014,1.81606724 17.2855066,1.55739802 C17.5815119,1.29872879 17.967217,1.16853271 18.3576953,1.19547705 Z M26.9692827,14.2483778 C27.0544768,14.3428394 27.1271508,14.5344601 27.1260782,14.7258201 C27.0268005,14.5604917 26.824011,14.4905407 26.6450909,14.5599065 C26.4661709,14.6292724 26.3627492,14.817939 26.3997898,15.0073963 C26.4368303,15.1968537 26.6036447,15.3324322 26.7954493,15.3289688 C26.7081479,15.4420107 26.688064,15.5936465 26.7428685,15.7259613 C26.7976729,15.858276 26.9189009,15.9508331 27.0602511,15.9682818 C27.1987381,15.9855955 27.3365824,15.9275023 27.4217765,15.8155236 C27.5069705,15.703545 27.5267624,15.554442 27.473789,15.4236839 C27.5807492,15.4430991 27.6908683,15.4173807 27.7782774,15.3525704 C27.8656865,15.2877602 27.9226815,15.1895703 27.9358766,15.0810679 C27.9564214,14.9192895 27.8765374,14.7611703 27.7344563,14.682391 C27.5923751,14.6036118 27.4170011,14.6201989 27.2922739,14.7242131 C27.3398633,14.5386356 27.4573863,14.3847604 27.5594643,14.3217429 L26.9692827,14.2483778 Z M19.5659341,3.99385537 C19.4788085,4.10431788 19.456433,4.25304659 19.5071318,4.38471151 C19.4003969,4.36339642 19.2897172,4.38725787 19.2011497,4.45067825 C19.1125821,4.51409863 19.0539517,4.61147464 19.0390544,4.71988044 C19.0153419,4.88155995 19.0925302,5.04149892 19.2335516,5.12287671 C19.374573,5.2042545 19.5506127,5.19044336 19.6771158,5.08807703 C19.6255885,5.27268251 19.5053099,5.42519589 19.4030795,5.48505351 L19.9919146,5.56876953 C19.9075431,5.47345525 19.8382019,5.28059265 19.8425934,5.08928577 C19.9389911,5.256328 20.1405419,5.32982762 20.3206426,5.26361617 C20.5007434,5.19740471 20.6074245,5.01058806 20.5736746,4.82051424 C20.5399248,4.63044043 20.3754829,4.49195684 20.1836423,4.49205131 C20.2731956,4.380679 20.2961963,4.229346 20.243849,4.09592266 C20.1915016,3.96249932 20.0719033,3.86762362 19.930789,3.84757538 C19.7918944,3.82773074 19.6530597,3.88339286 19.5659341,3.99385537 Z M19.7390094,1.77667888 L19.6506524,2.62876831 C19.6952597,2.6246309 19.7471497,2.62126925 19.8085071,2.61891609 C19.8692122,2.61575269 19.9322985,2.61802825 19.9971138,2.62493252 C20.0648421,2.63214711 20.1254083,2.64452482 20.1788124,2.66206568 C20.2280947,2.67666311 20.2737049,2.7017304 20.3125607,2.7355735 C20.3448084,2.76338093 20.3692729,2.79918695 20.3835212,2.83943091 C20.4098456,2.93908348 20.4004446,3.04482863 20.3569696,3.13809103 C20.3138285,3.22767875 20.2306073,3.29097709 20.1331513,3.30832795 C20.0824703,3.31783265 20.0306661,3.31980166 19.9793937,3.31417206 C19.8981844,3.30506239 19.818941,3.28286477 19.7447025,3.2484305 C19.6730817,3.2165742 19.6055778,3.17605005 19.5436871,3.1277563 L19.5283936,3.1261272 L19.5040821,3.36058001 C19.6456994,3.44078089 19.8021962,3.49073879 19.9637819,3.50733181 C20.0502918,3.51716901 20.1378886,3.51194494 20.222428,3.49117526 C20.3668024,3.45605342 20.4888275,3.35959477 20.5568823,3.22679518 C20.5921594,3.15967344 20.6142635,3.08632973 20.6219894,3.01076242 C20.63337,2.92773241 20.6252453,2.84314412 20.5982671,2.76378536 C20.5732825,2.69704159 20.5317775,2.63779974 20.4776883,2.59167806 C20.4259448,2.54727631 20.366236,2.51325555 20.3017952,2.49145814 C20.22684,2.4671935 20.1494832,2.45125291 20.0711067,2.44392115 C20.0098237,2.43745666 19.9482791,2.43386704 19.8866731,2.43316394 L19.9322571,1.99356492 L20.7071274,2.07610595 L20.7272603,1.88194972 L19.7390094,1.77667888 Z M13.825,19.871 L13.7961442,19.864754 L13.0527921,20.7739935 C12.8344716,21.0746559 12.7494006,21.2371542 12.797579,21.2614882 C12.8457575,21.2858223 13.0318777,21.1743621 13.3559395,20.9271076 L14.5252281,19.7741118 C14.477943,19.8057264 14.439412,19.8281553 14.4123644,19.8403648 C14.2108493,19.9313301 14.0143221,19.9333023 13.8334191,19.8742193 L13.825,19.871 Z M13.0118513,18.9880658 C13.1440925,19.3359196 13.3989171,19.670346 13.7129887,19.824983 L13.825,19.871 L13.914298,19.8916008 C14.0292344,19.9119358 14.1345187,19.9127348 14.2301509,19.8939979 C14.3576605,19.8690155 14.4742018,19.811269 14.5797749,19.7207585 L14.5252281,19.7741118 C14.6042495,19.7212785 14.7077194,19.6427914 14.8229003,19.5434755 L14.9732543,19.3736374 C14.982164,19.3757217 14.9911467,19.3777642 15.0002031,19.3797643 C15.1068246,19.2796786 15.2172727,19.1638357 15.3236171,19.0374002 L15.3065925,19.032551 L15.5670643,18.6922711 L15.58,18.697 L15.6462336,18.6021354 C15.7184953,18.4970589 15.7916944,18.3883895 15.8654972,18.2769235 L15.8421128,18.2655706 L16.0653377,17.9419541 L16.0788666,17.9497389 C16.1509318,17.8376709 16.2232619,17.7237071 16.2955563,17.6085636 L16.2774537,17.5935064 L16.4617772,17.3058993 L16.4754512,17.3196223 C17.3545133,15.8964766 18.1911299,14.3862164 18.4394316,14.0906878 C19.2256182,13.1549686 20.4092971,12.6790381 21.3159605,13.1059952 C22.2226239,13.5329524 22.2614591,14.7766135 21.9758285,15.8006045 C21.7887562,16.4712624 21.2972513,17.0122997 20.675081,18.2125845 L21.8111212,18.373625 L20.6441798,18.2725365 C20.6114216,18.3364518 20.5783139,18.4022055 20.5448816,18.4699104 L23.2854806,18.7141365 L20.4852112,18.5921431 C20.209078,19.164319 19.9122689,19.8711133 19.6083237,20.7739935 C18.5217905,24.0015794 17.6820669,26.675285 16.1519506,27.7507323 C16.105466,27.7820213 8.64810736,26.7117397 8.5792774,26.6521602 C7.37281056,24.9454465 7,19.3440414 7,18.5667797 C7,17.789518 7.10633396,16.669707 7.72881995,15.9252347 C8.14381062,15.4289198 9.51085277,13.679128 11.8299464,10.6758592 C12.0359685,12.3342406 12.2164925,13.7458854 12.3715186,14.9107937 L12.417,15.251 L12.3358781,15.1831655 C12.3080391,15.1618146 12.27936,15.1414888 12.2494185,15.1211465 C11.892688,14.8787834 11.3786829,14.8787834 10.7074031,15.1211465 C11.217406,15.1317605 11.6398457,15.2250937 11.9747221,15.4011462 C12.1435313,15.4898931 12.3117946,15.6110707 12.479512,15.7646855 C12.4807966,15.7639569 12.4760306,15.7147498 12.4689103,15.6473394 L12.4631865,15.5938415 C12.7384739,17.6184469 12.9213228,18.7499354 13.0118513,18.9880658 Z" id="Combined-Shape" fill="#BBBBBB" fill-rule="nonzero"></path>
    </g>
</svg>