<?xml version="1.0" encoding="UTF-8"?>
<svg width="37px" height="28px" viewBox="0 0 37 28" version="1.1" xmlns="http://www.w3.org/2000/svg" xmlns:xlink="http://www.w3.org/1999/xlink">
    <title>Navigation / Icons / Category Nav Icon - Card Games - Default@1x</title>
    <g id="Navigation-/-Icons-/-Category-Nav-Icon---Card-Games---Default" stroke="none" stroke-width="1" fill="none" fill-rule="evenodd">
        <path d="M18.946616,2.00710585 L31.1941298,5.28844159 C31.7241027,5.43017926 32.1760292,5.77671135 32.4504265,6.25175558 C32.7248237,6.72679981 32.7991984,7.29141512 32.6571784,7.82131246 L27.6612524,26.4661989 C27.5195266,26.9964006 27.1728365,27.4485112 26.6975554,27.7229341 C26.2222743,27.997357 25.6573944,28.0715782 25.1273548,27.9292476 L12.8788143,24.6479118 C12.3486126,24.5061861 11.896502,24.159496 11.6220791,23.6842148 C11.3476562,23.2089337 11.273435,22.6440539 11.4157656,22.1140143 L16.4137451,3.47015448 C16.5554828,2.94018155 16.9020149,2.48825506 17.3770591,2.2138578 C17.8521033,1.93946055 18.4167186,1.86508585 18.946616,2.00710585 Z M25.5343243,24.2943128 C25.3269834,24.3147547 25.1387175,24.4241681 25.018313,24.5942001 C24.9562344,24.6799697 24.9112358,24.7768811 24.8857704,24.8796512 C24.8537745,24.9920092 24.8485616,25.1103029 24.8705501,25.2250399 C24.8922303,25.3219834 24.9383152,25.411782 25.0044344,25.4859193 C25.0676313,25.5572282 25.1439141,25.615759 25.2291519,25.6583422 C25.3285097,25.7063703 25.4328259,25.7433788 25.5402371,25.7687065 C25.6240797,25.7895201 25.7088462,25.8064176 25.794261,25.8193442 L25.6452321,26.4170662 L24.5852717,26.1527884 L24.5194507,26.4167823 L25.8712987,26.7538359 L26.1599179,25.5962475 C26.0971651,25.5932991 26.0242019,25.588863 25.9395326,25.5804502 C25.8538672,25.571789 25.7676996,25.5566538 25.6790375,25.5345478 C25.5863906,25.5114484 25.5046965,25.4826147 25.4339554,25.4480469 C25.3683641,25.4183403 25.3099138,25.3748999 25.2625548,25.3206613 C25.2231954,25.2760334 25.1962044,25.2218794 25.1842658,25.1635846 C25.1664063,25.021282 25.2000566,24.8772858 25.2791315,24.7576357 C25.3563418,24.641945 25.4843999,24.5703558 25.6233927,24.565181 C25.6956266,24.5619023 25.7679508,24.5692395 25.8380545,24.5869582 C25.94875,24.6151422 26.054148,24.6610746 26.150152,24.7229701 C26.2437621,24.7808369 26.3299398,24.8499405 26.4067641,24.9287404 L26.4276844,24.9339564 L26.5071664,24.6151713 C26.3261435,24.4770234 26.1185598,24.3777176 25.8974045,24.3234549 C25.7783297,24.2925459 25.6557518,24.2824161 25.5343243,24.2943128 Z M19.4375758,0.295576005 C19.9078209,0.578262261 20.2464362,1.03625275 20.3788636,1.56870461 L20.4076112,1.67856159 L19.1437425,1.33975033 C17.6936017,0.951234138 16.199096,1.79408974 15.7812974,3.2360667 L14.616,7.583 L14.4911717,7.70211245 C14.4082676,7.78483718 14.328858,7.87298973 14.2617803,7.96402387 C13.9886778,8.3870246 13.8603402,8.3849712 13.5800509,8.28435452 L13.3377495,8.19503155 C12.4401374,7.76711069 11.3762082,7.89544793 10.6060989,8.52453893 C9.83598963,9.15362992 9.49793377,10.1705537 9.73813654,11.1355026 L9.77201767,11.25768 C10.0553871,12.6673402 11.3164598,13.7353992 12.7045593,14.7148717 L10.7699708,21.9353683 C10.3808098,23.3858405 11.2238022,24.8810451 12.6662872,25.2988401 L13.0892879,25.4117772 L11.2391731,25.8737926 C10.706961,26.0066459 10.1437692,25.9225829 9.67355017,25.6401049 C9.20333114,25.3576269 8.86462229,24.8998847 8.73196976,24.3676225 L4.06150784,5.63649316 C3.92868695,5.10413933 4.01288975,4.54082279 4.295576,4.07057767 C4.57826226,3.60033255 5.03625275,3.2617172 5.56870461,3.12928982 L17.8716603,0.061507838 C18.4040141,-0.071313052 18.9673306,0.0128897485 19.4375758,0.295576005 Z M26.1716736,21.4670259 C26.2741092,21.6121348 26.3425138,21.8894904 26.3083175,22.1539624 C26.1983906,21.9084517 25.9280889,21.777272 25.6672011,21.8428232 C25.4063133,21.9083743 25.2301208,22.1517411 25.2492981,22.4200536 C25.2684755,22.6883662 25.4774888,22.9042007 25.7450475,22.9319818 C25.6042165,23.0734957 25.5503479,23.2798 25.6040158,23.4721 C25.6576838,23.6643999 25.8105992,23.812994 26.0043582,23.8611291 C26.194155,23.908591 26.3959442,23.851655 26.5336603,23.7112537 C26.6713764,23.5708524 26.7244057,23.3680014 26.6730203,23.1781653 C26.8185767,23.22318 26.9762433,23.2063107 27.1089814,23.1315203 C27.2417194,23.0567298 27.3378296,22.9306101 27.3747426,22.7827912 C27.4309821,22.5625368 27.3468166,22.33029 27.1625218,22.1972097 C26.9782269,22.0641295 26.7312945,22.0572889 26.5399147,22.1799621 C26.637868,21.9313866 26.8277419,21.7385315 26.9805908,21.6687116 L26.1716736,21.4670259 Z M21.0473224,10.0901446 C20.456333,10.6723582 20.2179904,11.5240738 20.4209546,12.3284658 C19.3931551,11.9924769 18.2690264,12.4048637 17.7023282,13.3257945 C17.1356299,14.2467253 17.2741254,15.4360726 18.0372697,16.2021478 C18.800414,16.9682229 19.9892217,17.1112763 20.9123179,16.5481122 C20.4771559,17.5890296 19.6635243,18.388231 19.016514,18.6687315 L22.4121524,19.5785901 C21.9869795,18.9597788 21.7190804,17.7857486 21.88469,16.6757937 C22.3298076,17.720292 23.4607921,18.2942332 24.5666078,18.0367878 C25.6724234,17.7793423 26.4336117,16.7648834 26.3716232,15.6311886 C26.3096347,14.4974939 25.4423771,13.5720757 24.3150845,13.4367328 C24.9210434,12.8508114 25.1648482,11.9841555 24.9532492,11.1682413 C24.7416501,10.3523271 24.1073849,9.71338969 23.2930458,9.49580763 C22.4934975,9.28235656 21.6383117,9.5079311 21.0473224,10.0901446 Z M7.94654365,7.44553997 C7.90465426,7.51207018 7.87984917,7.52537622 7.84321648,7.51752401 L7.76584431,7.4907148 C7.58941181,7.40668321 7.38033726,7.43195725 7.22901076,7.55561011 C7.09930233,7.66159827 7.03196877,7.82356494 7.0450954,7.98710064 L7.06460767,8.09236147 C7.17754476,8.6519134 8.11697599,8.93322942 8.32950305,9.36239036 C8.31615594,8.88394778 9.01225908,8.19400485 8.84798695,7.64780003 L8.84182675,7.62418591 C8.79436809,7.43487316 8.64209618,7.28983805 8.4506986,7.25164633 C8.25930103,7.21345462 8.06302613,7.28894024 7.94654365,7.44553997 Z M17.6196835,6.02766713 C17.479538,6.16564354 17.4229766,6.36753815 17.471041,6.5582422 C17.3261229,6.51063811 17.1679934,6.52484403 17.0338805,6.59751553 C16.8997675,6.67018703 16.8015202,6.79490346 16.7622525,6.94229909 C16.7016228,7.16187943 16.7817253,7.39618525 16.964101,7.53267934 C17.1464767,7.66917344 17.3938613,7.67996626 17.5874313,7.55987382 C17.4841629,7.80643621 17.2906865,7.99693987 17.1381655,8.06236387 L17.9434396,8.2781364 C17.8422947,8.1319878 17.778741,7.8534806 17.8175477,7.58964577 C17.9231731,7.83703752 18.1911443,7.97291466 18.4531364,7.91192659 C18.7151285,7.85093852 18.8955415,7.61068386 18.8810498,7.34207748 C18.866558,7.07347109 18.6613433,6.85402162 18.3943103,6.82157524 C18.5379902,6.68275282 18.5958671,6.47736263 18.5458085,6.28394669 C18.4957499,6.09053075 18.3454936,5.93902706 18.1525124,5.8873179 C17.9625811,5.83628504 17.7598289,5.88969073 17.6196835,6.02766713 Z M7.18575836,3.83463327 L6.83976019,3.91471593 L5.84591382,5.812059 L5.9455038,6.24532674 L7.29048184,5.9352631 L7.47220788,6.72479601 L7.83463327,6.64163324 L7.65188052,5.85107363 L8.06872105,5.75559046 L7.99890539,5.45374042 L7.58206487,5.5502503 L7.18575836,3.83463327 Z M6.92805646,4.36646428 L7.22066619,5.63341306 L6.13236335,5.88495476 L6.92805646,4.36646428 Z M18.2394969,2.99066599 L17.9708934,4.15411552 C18.0336881,4.15596833 18.1064867,4.16013071 18.1922902,4.16729554 C18.2773244,4.17322902 18.3647434,4.18708904 18.4537778,4.20764425 C18.5468137,4.22912329 18.6289985,4.25652681 18.7003322,4.2898548 C18.766432,4.31841207 18.8256314,4.36082576 18.8739298,4.41422955 C18.9140621,4.45816376 18.9419941,4.51183846 18.9549482,4.56991607 C18.9745578,4.71220746 18.943401,4.85685833 18.8669509,4.97845913 C18.7915937,5.0950345 18.664943,5.1684451 18.5263318,5.17589232 C18.4541661,5.18043118 18.381725,5.17435732 18.3113227,5.15786477 C18.1998469,5.13147555 18.093344,5.08731931 17.9958986,5.02708947 C17.9016561,4.97086953 17.8146251,4.90336092 17.7367348,4.82606003 L17.7157267,4.82120992 L17.6418203,5.14133361 C17.8252267,5.27630121 18.0345118,5.37196901 18.2565805,5.42236376 C18.3753113,5.45065231 18.4981274,5.45830243 18.6193446,5.4439335 C18.8262972,5.41987609 19.0126249,5.30719365 19.1300435,5.13508621 C19.1906158,5.04824627 19.2339162,4.95056426 19.2575841,4.8473654 C19.2876142,4.7344661 19.2907618,4.61609941 19.2667742,4.5017637 C19.2434054,4.40521325 19.1957603,4.31623271 19.1283574,4.2432606 C19.0639256,4.17306554 18.9866329,4.11587492 18.9006649,4.07478585 C18.8004841,4.02849909 18.6955378,3.9933168 18.5877009,3.96986749 C18.5035078,3.95052035 18.4184594,3.93510477 18.332832,3.92367086 L18.4714065,3.32343895 L19.5358177,3.56917765 L19.5970214,3.30407522 L18.2394969,2.99066599 Z" id="Combined-Shape" fill="#BBBBBB" fill-rule="nonzero"></path>
    </g>
</svg>